v -0.08444699656014039 0.3951625171417757 -0.021197010055195403
v -0.11517585836364903 0.39746703892184904 -0.010388183052991981
v -0.13819007925132665 0.40094360617464603 -0.03383977856232042
v -0.163530474085351 0.4046114271644045 -0.04368595893786664
v -0.1930113920610121 0.40861967433985696 -0.029314889222775514
v -0.22268139088050942 0.41021867400348955 -0.014897193032824815
v -0.25237884105810243 0.411332755266113 -0.00046661164794372593
v -0.2818745098231332 0.4087490902964698 0.014197917471377318
v -0.3106219644155849 0.40461148803656355 0.02974250618462321
v -0.33806259070946976 0.3977597842539419 0.04682420395556368
v -0.36430358192137957 0.38860815730285836 0.06460335770217862
v -0.3893032296112057 0.3770363847865825 0.0826918489449198
v -0.412651197300433 0.36220253969691246 0.10076247869326181
v -0.4356910562565146 0.3456961595978147 0.11774047368059339
v -0.45672442569612154 0.3252799063811449 0.13260014277287016
v -0.47579113693872654 0.30232097834746574 0.14672090065481885
v -0.492235128852394 0.2775590944622883 0.16091503835300172
v -0.5000000000000001 0.24941778291120517 0.1745833044749809
v -0.4779538016772288 0.25374132787729825 0.1578229407890461
v -0.45594470339817245 0.26389147528453205 0.1353671762491342
v -0.43338274611908767 0.2751817565757194 0.11410272206868638
v -0.410262448778857 0.2875884322476397 0.09402177426898585
v -0.3865992662017309 0.29978268979550604 0.07448200459766315
v -0.36184683815824864 0.31155075141304905 0.05602805524850956
v -0.33683808708087265 0.32189143215625854 0.03719656164313107
v -0.3112899305530035 0.3292283367196615 0.01757056499791097
v -0.2853620775207978 0.3355727829958219 -0.001763838128033745
v -0.2577475602194318 0.3375085926039982 -0.019802942602387186
v -0.23013304291806572 0.33944440221217387 -0.03784204707674063
v -0.2020907640985097 0.3381704713118704 -0.055170304944040675
v -0.17391392266518738 0.33588683978641354 -0.0722749490140157
v -0.14555341109786538 0.3330313691076878 -0.08893117479621603
v -0.11659919706022419 0.32832746335393087 -0.10413791589960227
v -0.08764498302258301 0.3236235576001734 -0.11934465700298849
v -0.057759703472879086 0.3198830169438596 -0.13274766142219638
v -0.026960383258312237 0.3170882259289679 -0.14437991109140585
v 0.004211141244581683 0.31453571187408447 -0.15472971409487715
v 0.03668009893560305 0.3128277291115368 -0.16060915252084068
v 0.06905349606937052 0.30894646346086374 -0.16494749266936717
v 0.0869831107888492 0.29615140376504817 -0.16624928887008758
v 0.06879748331882835 0.26864756936208767 -0.16526305667373536
v 0.03973526889842211 0.25294083750124396 -0.16462706760379278
v 0.010935896311631778 0.23688011287122573 -0.1631947299529871
v -0.017128820737538297 0.2198299614647534 -0.1595365598052822
v -0.0451935377867085 0.2027798100582805 -0.15587838965757733
v -0.07035871421578019 0.18341553189149115 -0.1476934408662322
v -0.09413029818901493 0.16293902595569804 -0.13733280792571773
v -0.11790188216224953 0.14246252001990492 -0.126972174985203
v -0.1416734661354843 0.12198601408411235 -0.11661154204468853
v -0.16510206091631502 0.1022288073822216 -0.1047316178153714
v -0.18720924755779753 0.08524278963717304 -0.08699843663356535
v -0.2092902314341437 0.06838197510108711 -0.06915418411014938
v -0.23005287144681597 0.05782052940602931 -0.04572158162135819
v -0.24904781729464168 0.05055435899905373 -0.02075146916204423
v -0.2621380390094417 0.0542955743183258 0.009354470754447416
v -0.24142605467586004 0.06171588727930287 0.00995511850507166
v -0.2161281457353529 0.06651925221226807 -0.010518889327343598
v -0.1920286631570928 0.07034881763910815 -0.03279595338356231
v -0.1675702055467964 0.07444271344786564 -0.05460336647515382
v -0.14210254125370128 0.07927973611529099 -0.07509042341440697
v -0.11663487696060605 0.08411675878271582 -0.09557748035366012
v -0.08945197010261167 0.09061965524862117 -0.11270764788389726
v -0.06054457204016261 0.09879740795468708 -0.12646282555635
v -0.0314417047205641 0.10763569379087652 -0.1391672044999247
v -0.001691917963731527 0.11866006109606902 -0.14839389016198035
v 0.02805786879310105 0.12968442840126101 -0.15762057582403627
v 0.058006857126822374 0.14155886862159475 -0.1648971194599506
v 0.08799188195727166 0.1535870910072272 -0.17182087328445209
v 0.11853158230562023 0.1657516153054936 -0.17443483624594588
v 0.14933535872754058 0.17714756765944653 -0.1745833044749809
v 0.18032623779836202 0.18372873019344502 -0.16732715131764903
v 0.17457247508401005 0.16430562710535843 -0.15697743143684487
v 0.1526514158734055 0.14025470835363 -0.15150557200774156
v 0.1322547605087378 0.11474846382627026 -0.14649297239190023
v 0.11193212964707373 0.09131387553661859 -0.1351245168567907
v 0.09317894773049074 0.06833124987370756 -0.12106688399394894
v 0.07673322967889482 0.045993741632253234 -0.10311438282576818
v 0.06550907797104927 0.020607194029557744 -0.08555994627542168
v 0.05614797380934247 -0.005867246539744608 -0.06814753862227543
v 0.05073872351085946 -0.033853280252932466 -0.05184146039131441
v 0.04808827808691287 -0.06289456314232943 -0.03630771512316133
v 0.051277005723145176 -0.09246161271082684 -0.0232389697451575
v 0.05974177232558426 -0.12250372363775205 -0.012397497876276866
v 0.07265151112311413 -0.15134448510245832 -0.004513651870500075
v 0.09017894465924668 -0.17893721511782462 0.0002976409701759826
v 0.10937521836741902 -0.205219116174719 0.004083885323653704
v 0.1340242909614071 -0.2272179907297297 0.004520867511378061
v 0.1586733635553952 -0.24921686528474038 0.004957849699102154
v 0.18599872758672065 -0.2674581302619361 0.007044648995820191
v 0.21420981827411809 -0.2844558031102058 0.009677460199423019
v 0.2434122591860606 -0.29966014827601534 0.012178685512556119
v 0.2729691451426234 -0.31422331124940656 0.014632863913644897
v 0.3043671570216899 -0.3243808121707428 0.016236066069949238
v 0.33538533617719646 -0.3355311756570407 0.01828372250977348
v 0.36657372177462005 -0.3462145677609107 0.01990061794072186
v 0.39766120808766475 -0.3568186652103693 0.022813616681410243
v 0.42731680442945946 -0.36921560463967795 0.030065447096750714
v 0.4478332366190003 -0.38657346908254503 0.048486588039969164
v 0.46994274417353155 -0.4026101318806799 0.06652700317461326
v 0.5 -0.411332755266113 0.07537801937845993
l 1 2 3 4 5 6 7 8 9 10 11 12 13 14 15 16 17 18 19 20 21 22 23 24 25 26 27 28 29 30 31 32 33 34 35 36 37 38 39 40 41 42 43 44 45 46 47 48 49 50 51 52 53 54 55 56 57 58 59 60 61 62 63 64 65 66 67 68 69 70 71 72 73 74 75 76 77 78 79 80 81 82 83 84 85 86 87 88 89 90 91 92 93 94 95 96 97 98 99 100
