v 0.3506175979735137 -0.39058968618685375 -0.2207975695408873
v 0.3262009556177064 -0.3911911761663797 -0.23377635409086014
v 0.30111858532629815 -0.39028764995496457 -0.24559610951884997
v 0.2750053173583177 -0.38741899809820646 -0.25455683605186386
v 0.2483754852627509 -0.3857757911138933 -0.26207348111542417
v 0.2209728653175625 -0.38505699628962553 -0.26636801009825384
v 0.19353996343015487 -0.3827061212385256 -0.26981133236831906
v 0.16615271822876587 -0.37924915863395137 -0.27274502080064866
v 0.13870468947544937 -0.3754148817637239 -0.2741498010798731
v 0.11109412152553257 -0.37262583538981764 -0.2741259339484134
v 0.08346490634803207 -0.3700985616111962 -0.27336422286565704
v 0.056042251401609504 -0.36652600907627764 -0.27101643640877354
v 0.02876011665925966 -0.36257785171831414 -0.26777106440695275
v 0.0016370424806055757 -0.3585894165978998 -0.26342051090349905
v -0.02523906969163341 -0.35552027045895107 -0.2572054486551849
v -0.051898640838734224 -0.35288418484178485 -0.2499371723706144
v -0.07834050146191837 -0.3501702828509354 -0.2419351884061196
v -0.10418934202766143 -0.3472051001719723 -0.23227922651575783
v -0.1297336519403899 -0.3436335098860626 -0.2220390880486988
v -0.15454597889142868 -0.3389092872387249 -0.21053157405421036
v -0.17878766189183962 -0.3348624156540291 -0.19768941030027115
v -0.2025586367244895 -0.3331246253458401 -0.18349488717405849
v -0.22597233930216643 -0.3318308068214614 -0.16863956356012325
v -0.2480786958212272 -0.3302661939803607 -0.15193056685331627
v -0.2694711089115899 -0.329366266752751 -0.1342641570998237
v -0.2901262681177944 -0.3286533449889009 -0.11574855692220944
v -0.3099566572700665 -0.3278453851060366 -0.09634056176060991
v -0.3289124162114776 -0.32656164995379533 -0.07611037411757518
v -0.34629851792666655 -0.326367997742783 -0.054492967110920984
v -0.3621317378405102 -0.32728079894672063 -0.03170913816059659
v -0.37706086166074043 -0.32811186468267134 -0.008336276350333753
v -0.3907841844244565 -0.3291973159961935 0.01576679225260618
v -0.4032302651972881 -0.33000257929889554 0.04056112597322624
v -0.41415984344076573 -0.33067184334196864 0.06605971111202277
v -0.42360354173260895 -0.3317740069026978 0.09213460236561635
v -0.4312847444471484 -0.33298537632190794 0.11876962381376936
v -0.4367551170755057 -0.33496990920426994 0.14590567921324807
v -0.441430646587546 -0.3367963158528146 0.1732073492811683
v -0.4449711658427295 -0.3386470025013097 0.2006683609074256
v -0.44577522404187325 -0.34140579259512943 0.22825818412007629
v -0.44453861778187925 -0.34469072750015173 0.2557688697078321
v -0.4404104642814934 -0.34787831162341154 0.2830200046661894
v -0.4339386985110079 -0.3513458808326972 0.3097658625933781
v -0.4253053599509034 -0.3549065222175461 0.33590020714700153
v -0.41388446977849724 -0.35838418820521667 0.3609086702963656
v -0.399148923954 -0.3623774894612766 0.3840384792872721
v -0.38179213728011224 -0.36624602197955547 0.4053352350113177
v -0.36192502970261103 -0.370168142798558 0.4242810771661426
v -0.33908688283685057 -0.3757854091562216 0.43901469676511656
v -0.3145794801504953 -0.38065942514217516 0.451043091459482
v -0.28887153870271537 -0.3843857387625007 0.46076288105591107
v -0.2623231262169043 -0.38844170114359455 0.46775149116942993
v -0.23541898356403265 -0.3933464040496582 0.4724503449602281
v -0.20808586115709088 -0.39753462641788906 0.47425218990615164
v -0.1806421189291948 -0.4016218371256054 0.4741010499556065
v -0.15334453703453574 -0.406029835339785 0.4717564154523626
v -0.12601423509710438 -0.4095890640209542 0.4684831934461129
v -0.09882154458267087 -0.41233349746789 0.46369704458622374
v -0.07198417780703134 -0.4150871615359477 0.45717722164091523
v -0.04526496537615062 -0.41804382378408717 0.45025042942354043
v -0.018724948096962027 -0.4209795271904752 0.44266719299428353
v 0.007407973946592604 -0.4240052857377789 0.4338318737001279
v 0.03317114134185752 -0.4264793838560636 0.42379941127757187
v 0.05868931244227576 -0.42835886572372983 0.41304511304912395
v 0.08394218239322519 -0.43017722871280545 0.4016623522890481
v 0.10901941226898143 -0.43212588765950705 0.38991724199092614
v 0.13375684184875333 -0.4336852965249301 0.3774251330869792
v 0.1580962146654004 -0.43444399186525423 0.36410365000374634
v 0.18213962726139024 -0.4347323193356385 0.3502316105920993
v 0.2058531150395383 -0.4351343607615146 0.33581062088927977
v 0.228586791543947 -0.43459249575810077 0.3198918558650831
v 0.25086309925832384 -0.43337017296241814 0.30337426018564667
v 0.272652829033402 -0.43227533622442016 0.2862149330807601
v 0.2938970681623104 -0.43136230857473273 0.2683731116188301
v 0.31430799155521105 -0.43005052959400114 0.24961967203948193
v 0.3337553221068075 -0.42797614649424076 0.22992781794799522
v 0.35157922234711203 -0.42514948709797246 0.20885216802466983
v 0.3682105423058337 -0.4226399246599488 0.18678241689834932
v 0.38323901726865556 -0.42067328889599986 0.1635351186191595
v 0.3965363456682882 -0.4184766551425432 0.13928824359257413
v 0.40699024487579044 -0.4153247256372294 0.11376930560384951
v 0.41618798267645973 -0.41219761550746264 0.08777498638660473
v 0.42282259230933894 -0.4080192257881157 0.06115955957174157
v 0.4276532419109131 -0.40386500868831826 0.03415641012821187
v 0.4278020798718049 -0.40041729730417036 0.006698547195432973
v 0.42662129573828744 -0.39816933686148254 -0.020914390223238287
v 0.42333059512549426 -0.39696816858854195 -0.04844379390830904
v 0.4182040685906531 -0.39456385440282965 -0.07560673887210981
v 0.4118554415521102 -0.3925286687107722 -0.10254936494917916
v 0.40464222363508995 -0.39120272711609655 -0.12932120091203828
v 0.3955471556883568 -0.39092065114813074 -0.1554856244605923
v 0.38427294025450426 -0.39179061300607937 -0.18083793617721575
v 0.37247586826878765 -0.39228456562644604 -0.2059488972883633
v 0.357287763248679 -0.39340524031166824 -0.22908093518211212
v 0.3388665497756813 -0.39640952509110583 -0.2495087684664063
v 0.31597300101523557 -0.39549321672609455 -0.26465870819327547
v 0.2896108495742027 -0.39728425282883983 -0.27284830842386476
v 0.2623698708591522 -0.40056424211753133 -0.27077439179138213
v 0.2366754344203452 -0.39492101675755975 -0.2625325786324689
v 0.214023593021722 -0.3845562000756366 -0.25030470261838106
v -0.44863410821822197 -0.36473422770085917 0.2458561870081259
v -0.45002613789455015 -0.33000170641901083 0.25017505000892737
v -0.4538200624265758 -0.2911288287545035 0.24772464964705096
v -0.4603611257504266 -0.2523479949294619 0.24625653225456698
v -0.46532740439998366 -0.21374638368587143 0.2403130290516291
v -0.4680246172318094 -0.17558437074815908 0.23106159907923496
v -0.46854646398964006 -0.13832865814557668 0.2182577085779616
v -0.46863152364318506 -0.10068309356683176 0.20663052772592921
v -0.4696252291822631 -0.06279088113080777 0.19587049581227214
v -0.4709202939375837 -0.024720276816471803 0.18578423104268474
v -0.4724225260626985 0.01377181880432278 0.17749535531147603
v -0.473726022280346 0.05252770026013538 0.1704918552469753
v -0.47395852005267824 0.09119033836870014 0.16288946591401274
v -0.47314175633456124 0.12965225545343498 0.15437551783668985
v -0.4712179419927549 0.16815107205315732 0.14619482935591896
v -0.46910055021726504 0.20664442807957847 0.1380468366440581
v -0.466513326447031 0.2452810007913877 0.1307524229629446
v -0.46383857003417345 0.2839636030422922 0.12372843036419816
v -0.46085551985410544 0.32275530257991125 0.1175353399382087
v -0.4576916901551147 0.36174410942672314 0.11277099459567935
v -0.45625793277466575 0.4009815645308901 0.1096672347203031
v -0.4617707104438058 0.437911631040895 0.10837437097213319
v -0.4772171362743393 0.43460570422505906 0.10639156962055311
v -0.5 0.427420524052435 0.13339455557303254
v -0.4915869325759741 0.4101414665763931 0.1674350451849425
v -0.4776988563596236 0.39221233017936574 0.19961362387777834
v -0.459754311293611 0.37441226891821533 0.22977954542828263
v -0.4370910944803291 0.35875711425380324 0.25794648108599366
v -0.4131893847696922 0.34407133055538686 0.2855489260480998
v -0.3851069170229469 0.32771646811790767 0.307774595834968
v -0.354687019849319 0.3119300432196688 0.32711891391851344
v -0.323662502814378 0.2952098389632457 0.3446971478180364
v -0.29144383290731785 0.2767722835133069 0.35779391029463825
v -0.25677327317399495 0.2609403676852792 0.3676287423538344
v -0.22056852173469157 0.2480333374715322 0.3761646655494164
v -0.18293470438023846 0.23852676527455033 0.38261241374578675
v -0.14455960070208532 0.230751505665269 0.38698818091024473
v -0.10553427531163558 0.2262627373871138 0.38991569844012763
v -0.06639168838845409 0.2220329028827177 0.38900307358707625
v -0.027412604374410215 0.21903643199734749 0.3842154498155444
v 0.011194347103913458 0.21821012102352386 0.37651988742152326
v 0.04907613542345679 0.21985837710481904 0.3658433443747573
v 0.08622557013134806 0.22339868317127515 0.3533856007818144
v 0.12235087036974086 0.22884253536041976 0.3386284381895633
v 0.15742728909499798 0.23536282958025953 0.32192341089314574
v 0.191726399808126 0.24197471391482833 0.30370650787060427
v 0.22490912847895012 0.24892831724718587 0.28362804533451935
v 0.25609609794635313 0.2566751223883978 0.26082371128871895
v 0.2860697129078841 0.264294976809863 0.2364198346050206
v 0.3145365977407885 0.2716151224998917 0.21019976601225662
v 0.3413660280221419 0.2789431434173244 0.18230363404578093
v 0.3648222677138052 0.2871044917841027 0.15178814485970338
v 0.3834491879302482 0.29746301451422025 0.11870589949616378
v 0.39689431567754685 0.3096964617543567 0.0837777079858453
v 0.4069911559116823 0.3199306017943794 0.047115098927720526
v 0.41482711879421036 0.32859568586461047 0.009540515069386617
v 0.4147688192808461 0.3391690362884286 -0.02830415932898191
v 0.40705115890343685 0.35289293100285113 -0.06440548869233287
v 0.3963617765555972 0.3632646756125466 -0.10082933579401329
v 0.3852275307292567 0.36915784537192115 -0.13811394914129332
v 0.372761940935359 0.37101228679129433 -0.1753258953054194
v 0.353935237851888 0.37069405487546736 -0.20988773136644687
v 0.33176935100709865 0.3704620673721628 -0.24244622305952487
v 0.3112835622856001 0.3735448657951258 -0.27595375086100193
v 0.28699479958368496 0.37475552043331656 -0.30689204389373254
v 0.2602654286446815 0.37597264314382395 -0.33579481514955384
v 0.23256345366358383 0.3787739456913054 -0.36367589723165367
v 0.20107980009778534 0.3784133181833156 -0.38729366220953615
v 0.16862878563615818 0.37552908895385245 -0.4094029672781701
v 0.133786299489887 0.3720235098213407 -0.42739305856187504
v 0.09748210847779634 0.37060848959386344 -0.4425993421422734
v 0.06024350288184175 0.3703558116301358 -0.4554669501992189
v 0.02193038638234922 0.3702138983542415 -0.4645565461249895
v -0.01694808190402575 0.372437202919736 -0.47038732876043926
v -0.05604204465086123 0.3760616805955252 -0.47369159431406566
v -0.09483681375236537 0.3828038815034546 -0.47425218990615153
v -0.13326582780628968 0.3906995540840704 -0.4710364802136522
v -0.1714345754706177 0.39724529833990313 -0.46383639048928305
v -0.20897186688642694 0.403064256657558 -0.4534635638282458
v -0.2452142938850936 0.4081487678162163 -0.4389226465626879
v -0.2794207201829766 0.41490781008034133 -0.4206999130565548
v -0.31141220790090357 0.4220688546041018 -0.39893817894943995
v -0.34136152427515465 0.42607470278404325 -0.3736732630403718
v -0.3700579168689893 0.4296985153703095 -0.34694556816397887
v -0.39568906725763336 0.43387778909450364 -0.31735040030806577
v -0.4183748204210612 0.44038962761419104 -0.2858215081092817
v -0.43731384226915365 0.448042583213113 -0.25219959157375876
v -0.45347883965983554 0.4508797395177813 -0.21643777313286577
v -0.4668199854110585 0.44989921770312125 -0.17939863603547848
v -0.4754177110351185 0.44937793141448495 -0.14106070162899378
v -0.47837517725849693 0.44910894936611584 -0.10177453011028473
v -0.4787988297934284 0.4477853394645384 -0.06241052362757102
v -0.47591020794668437 0.447828171068644 -0.02314921291054814
v -0.47007851299745285 0.447553791415499 0.015771999576076914
v -0.46371120354217293 0.44382194063590397 0.05447733497853472
v -0.45440399546767585 0.44015057811296643 0.09255687955465394
v -0.44147161822815517 0.435833346745367 0.12951812151482944
v -0.42234794483523064 0.4329583748038882 0.16362454877889823
v -0.3966259762218674 0.4355668157579281 0.19308355537632443
v -0.36940301060482766 0.44719860011557183 0.21890241750044545
v 0.4234850408468641 0.41756250186816657 -0.06629282229782406
v 0.4336296786272815 0.40630296781788966 -0.07590211882373236
v 0.43918837527524957 0.3902604879861766 -0.08504692185519688
v 0.4410877108726317 0.37185506724872225 -0.09051350341324912
v 0.44257000050015627 0.35287574407109523 -0.09403277089889196
v 0.44437962604717185 0.3338222383057469 -0.09691582091022087
v 0.4471996878185101 0.3147992229400868 -0.09914849416032064
v 0.44939619171340556 0.29570365736892035 -0.1013771575763461
v 0.44987647253180024 0.27636787388629885 -0.10223955912594403
v 0.4504217460350811 0.2570311649233377 -0.10303987898535835
v 0.45109077525642394 0.23768784928261752 -0.10342790864965713
v 0.45186153693289327 0.2183434588665588 -0.10349316472830644
v 0.4527366827806788 0.1990036488649688 -0.10326338694090031
v 0.45313217788016696 0.17965396325222638 -0.10278769924922486
v 0.45327930674963063 0.16030471150389847 -0.10218683224308608
v 0.45307146297981316 0.1409605042489141 -0.1014087733586635
v 0.4526955575645702 0.12164111416060934 -0.10023618118332496
v 0.45223602231812055 0.10233407344241277 -0.09886726371055642
v 0.45293831563689974 0.08306663334704151 -0.09714328750470494
v 0.45378334102450835 0.06380323259074237 -0.09540237232099007
v 0.4552215276823379 0.04454180661070234 -0.09406969931655504
v 0.4566961253195326 0.025286623046895898 -0.09269374839112295
v 0.45836365534927603 0.006064516437359143 -0.09108847891979972
v 0.4600147725634981 -0.013157532904498288 -0.08946624253086058
v 0.4616096608400223 -0.03237938605205587 -0.08778587889664169
v 0.4630296586442049 -0.0516062468307266 -0.08603315957755349
v 0.4640284470463839 -0.07084516807946165 -0.08410617750791402
v 0.46489064672428165 -0.09008349246657472 -0.08211734409645144
v 0.4655404693604172 -0.10932088881437624 -0.0800323401915998
v 0.4668352053912823 -0.1285096662445853 -0.07787044124053358
v 0.46856719343126657 -0.1476654799938214 -0.07565640736139247
v 0.4705207949843654 -0.16683180904862668 -0.07374977868474314
v 0.4725468191541339 -0.18600157447305396 -0.07194360908583462
v 0.47463042925640325 -0.20515441117525576 -0.07002716338466165
v 0.4767366671152705 -0.22429920101226358 -0.06805959194685252
v 0.4789859067422921 -0.2433901178510617 -0.06575205119132965
v 0.48156597210088126 -0.26244261744622044 -0.06352925048150122
v 0.48485083561481657 -0.2814132721306983 -0.06148698176235652
v 0.4881539945619938 -0.30039582249208896 -0.05959464229640385
v 0.4914714224870266 -0.31938765053213314 -0.05781923568278657
v 0.4941808418813229 -0.33842354938078206 -0.05556746984873909
v 0.49650421147927204 -0.357523076611278 -0.05349697702641755
v 0.49809371896000676 -0.3767588793388818 -0.051978988759834636
v 0.4982358974708957 -0.3960620485775962 -0.050542314767281535
v 0.4982205524407183 -0.41532721004572554 -0.04863333476836936
v 0.49785188348608045 -0.4345351866417082 -0.04625151514669243
v 0.4972057435100936 -0.45372546734170144 -0.04377097503465058
v 0.5 -0.4726203641069958 -0.04329873975988051
v 0.49392668269620643 -0.477114387363857 -0.049556112314943626
v 0.49026696505270473 -0.4599029230727016 -0.057474637292941534
v 0.4872566113534935 -0.4418467355945136 -0.06372959724441865
v 0.48691605354884493 -0.42347423402492823 -0.06982731283645428
v 0.4862371415953908 -0.4049964259340256 -0.07556762080937651
v 0.48545977664629236 -0.3864737741369633 -0.08114878759597484
v 0.48457586379027956 -0.36789773717605334 -0.08653087963001248
v 0.4836581386280633 -0.349280082113947 -0.09176169250958598
v 0.4831831584097426 -0.3305368868991977 -0.09659014525534948
v 0.4826560314041456 -0.311764557140556 -0.10129515734471546
v 0.48204138322454826 -0.29294332907736764 -0.10579299135597578
v 0.481163689505544 -0.274049734795445 -0.10991300238476354
v 0.48012347035061564 -0.25511142828889194 -0.11379957153475354
v 0.4795867494894903 -0.23611718891141759 -0.11749198096240387
v 0.4792960887432469 -0.21709561508452332 -0.12108950434143721
v 0.47894159273953363 -0.1980539617979466 -0.12457222963825405
v 0.4785606099937902 -0.17900397707370025 -0.1280073225245544
v 0.47777836331645435 -0.15988485819205697 -0.1309204271083298
v 0.47680555420960496 -0.1407329071220252 -0.13358563660043327
v 0.4759926224778549 -0.12156255427383642 -0.1361647022842701
v 0.4753335353301854 -0.10237449401767279 -0.138660874698527
v 0.474711087718432 -0.08316599878823087 -0.14099166428430787
v 0.47416493455728675 -0.0639149518446242 -0.14297807745474617
v 0.4735407960449814 -0.044663133219136814 -0.14491466108175238
v 0.4722383168911668 -0.02540460226660019 -0.14641781196844142
v 0.47093583773735204 -0.0061460713140635715 -0.14792096285513048
v 0.469424286284305 0.01312085875526496 -0.14907176347576098
v 0.46788384532834426 0.03238894941023731 -0.1501738765176195
v 0.4664833549644502 0.05167707477477504 -0.15108008057878924
v 0.46516095838673577 0.0709763797013409 -0.1518769655308174
v 0.4637397424870355 0.09027215930861945 -0.15255804821831065
v 0.46216472206486947 0.10956245203298359 -0.15305889376554327
v 0.4604823348539904 0.12884304531694327 -0.15350069490856533
v 0.45823115594721675 0.14807225435794272 -0.15362969944840574
v 0.45597997704044313 0.1673014633989429 -0.15375870398824612
v 0.45378540171050524 0.1865356063054026 -0.15349549950538416
v 0.4515941558434042 0.20577003942535338 -0.15320922500754489
v 0.44970940932078074 0.22503400495931877 -0.1528065579866141
v 0.447915600952097 0.24430673274110004 -0.1523693573806268
v 0.4459442097375452 0.263549303800395 -0.1515865616754082
v 0.44388952824623096 0.2827777306908096 -0.150641674235923
v 0.4416704750570501 0.3019644328869241 -0.1493295669123363
v 0.4393795233122813 0.32113288409888785 -0.14785683230563024
v 0.4370116429347007 0.34026111652672636 -0.14603199452710303
v 0.4345321471148735 0.3593627997637783 -0.144088987195485
v 0.4317067150884289 0.37839423318921306 -0.1419283380751381
v 0.4285463936901932 0.3972926218140782 -0.13918621524187622
v 0.42486727334826246 0.4160045356786983 -0.13588622853415636
v 0.4202269540721102 0.43426015852529193 -0.1315222351196601
v 0.4137572661776597 0.45119595444203736 -0.12497992379978466
v 0.40619996758013 0.46658655610219346 -0.11607429363247862
v 0.39593534098924904 0.4771143873638573 -0.10387792996783798
v 0.04006569369655195 -0.41906396274649504 0.4615888100488813
v 0.046878429691824354 -0.4083983514352683 0.45523786049790343
v 0.04985023884930829 -0.3943974155813309 0.4515542331165381
v 0.052434295180575526 -0.3801553395294425 0.4484632129486162
v 0.05473755165648186 -0.3658983370261054 0.4452215930884089
v 0.056855833822450894 -0.3516515074129217 0.44181072741247707
v 0.05932464759949615 -0.33765611665267675 0.4376729928979874
v 0.06166896365068303 -0.32364146369413815 0.4335289645260017
v 0.0639067023512223 -0.3096088399686969 0.42938514081965296
v 0.06547897333607398 -0.29529163566435185 0.42599837296220344
v 0.06694889972832321 -0.28093066472381417 0.4227280353546465
v 0.06854929313528794 -0.26661875463827217 0.41930745673013203
v 0.07015245281637915 -0.2523078847832755 0.4158836925660477
v 0.07176920705414247 -0.23786907791202402 0.41307289864695457
v 0.0733894155912009 -0.22339776297480746 0.4104178569701943
v 0.07483166907812176 -0.20884126167464162 0.40822539869345476
v 0.07605257335846054 -0.19417880140429974 0.4066083243043517
v 0.0772734776387993 -0.1795163411339579 0.4049912499152485
v 0.07841925478670456 -0.164857394675091 0.40329061863258986
v 0.07954354448526414 -0.15019945321726205 0.40156608886665884
v 0.08067384636884228 -0.1355428159897013 0.39983484716385354
v 0.08191170502292117 -0.12090951117709516 0.39798353027177935
v 0.08314956367700004 -0.10627620636448899 0.3961322133797052
v 0.08441152628262479 -0.09164109596133607 0.3943158705967929
v 0.0858758049088445 -0.07699083037114117 0.3927930822784254
v 0.08734008353506421 -0.06234056478094698 0.39127029396005797
v 0.08886207139340528 -0.04769521486639404 0.3897655140427108
v 0.09079496544281153 -0.03308486596433669 0.38838895907652676
v 0.09272785949221776 -0.018474517062279348 0.38701240411034277
v 0.09465051578248877 -0.003859511223972703 0.38568407726515147
v 0.09643197810487067 0.010819720710936762 0.3850208881397348
v 0.09821344042725257 0.025498952645846226 0.3843576990143181
v 0.09999495664876662 0.040179156332793294 0.38372050566261046
v 0.10177687766013495 0.054866658010453526 0.38327854412696954
v 0.10355879867150328 0.06955415968811303 0.3828365825913285
v 0.10534854929814728 0.08424087157745304 0.38240034263176464
v 0.10715974610771171 0.09892542014915989 0.38197977470241185
v 0.10897094291727613 0.11360996872086748 0.381559206773059
v 0.11073334643137718 0.1283008652159094 0.3811554878702829
v 0.1124635858243253 0.14299594620747508 0.38076287570106493
v 0.11418943690740892 0.15769154035198474 0.38040323316868124
v 0.11581659304063213 0.1723986755238176 0.380785091750569
v 0.11744374917385533 0.18710581069564972 0.3811669503324568
v 0.11920967284697488 0.2017735586484829 0.3820058069869909
v 0.12105310953730936 0.2164193056190493 0.3830999344310676
v 0.12297432067146016 0.2310584431566426 0.38414122494094305
v 0.1250145185130883 0.24568746895792476 0.3851016805065192
v 0.12678239685170758 0.26033088902393675 0.38626742043617335
v 0.12813145722599806 0.274996446970583 0.3877488806081229
v 0.12919587879886058 0.2896823904166156 0.3892551451636324
v 0.13036180094161232 0.3043864024867567 0.39043145039378196
v 0.13189443781191418 0.3190905836503978 0.39106893450818
v 0.13204845819744615 0.3227298455423578 0.3902147238153876
v 0.1293013186515882 0.3082418930719345 0.39099332139021487
v 0.12620491712028134 0.29376862054890557 0.39094721434885515
v 0.12308704490483593 0.27931852152794234 0.3902684556888326
v 0.12017944200202389 0.26484133327358406 0.38931244620628574
v 0.11779866958651966 0.25028488145155164 0.3880735309228949
v 0.11593684455714737 0.2357088044352759 0.3863952384693061
v 0.11446550960534269 0.22111796013463317 0.38438632979168935
v 0.11301274588346301 0.20652289549023456 0.3823948606972345
v 0.1115848925125987 0.191922169925973 0.3804267840296617
v 0.1102045100885633 0.17730993951815438 0.3785193597028879
v 0.10907678173914631 0.16263647701371725 0.37693474463233767
v 0.10794905338972931 0.14796301450928082 0.3753501295617873
v 0.10697718046292398 0.13326873356997038 0.37386568249344776
v 0.10610963106774654 0.11856051758359738 0.3724482839728687
v 0.10524208167256906 0.10385230159722439 0.37103088545228974
v 0.10422525670840299 0.08910993777302799 0.3702075232899662
v 0.10319092754738934 0.0743635697405122 0.3694538184025737
v 0.10215659838637571 0.0596172017079964 0.36870011351518117
v 0.10101918581197361 0.04486068259902053 0.36853278657640726
v 0.0998769133658242 0.030103684917129083 0.36839310445004353
v 0.09873464091967481 0.015346687235238363 0.36825342232367986
v 0.09731394339600988 0.0006282751882019901 0.36890140377495995
v 0.09588394540713181 -0.014088847950672959 0.3695756962100383
v 0.09445394741825372 -0.028805971089547907 0.3702499886451166
v 0.09291099726810159 -0.043487299566737275 0.371330135461027
v 0.09136522904792091 -0.05816773499449689 0.37242040803330795
v 0.08981946082774021 -0.07284817042225651 0.37351068060558884
v 0.08890971321715563 -0.08758011286038092 0.3746213545133926
v 0.0880029503730902 -0.10231229701457294 0.3757321241621555
v 0.08715103409738949 -0.11704723865619966 0.3768102457035088
v 0.08746367222552301 -0.13184072988865272 0.37719515163640555
v 0.08777631035365652 -0.14663422112110508 0.37758005756930224
v 0.08809765147407747 -0.1614248533979508 0.3780412908709708
v 0.08844031438033831 -0.17620848141267828 0.37868952144402873
v 0.08878297728659915 -0.19099210942740508 0.37933775201708664
v 0.08919147463905436 -0.20569139280149096 0.38097012968047805
v 0.08961292529689872 -0.22037408088312158 0.3827961439360465
v 0.08982792819372575 -0.2350498816882773 0.38470149117084573
v 0.08988449841513405 -0.24972039704188306 0.38666772032602287
v 0.08978554642122331 -0.2643401788014187 0.3889544760211287
v 0.08954702347566273 -0.2789144304996024 0.3915288831885027
v 0.08908731165748027 -0.29338156704629914 0.39460049910079353
v 0.08854718520092808 -0.3077791250565769 0.39798436798393794
v 0.08827563933217764 -0.3219994922150478 0.4020832335270416
v 0.09003714308384787 -0.33649201443902826 0.4042255036821552
v 0.09387668512647908 -0.35074640048750855 0.4046237907401921
v 0.10094550416901575 -0.3627684794445317 0.4067015263531637
l 1 2 3 4 5 6 7 8 9 10 11 12 13 14 15 16 17 18 19 20 21 22 23 24 25 26 27 28 29 30 31 32 33 34 35 36 37 38 39 40 41 42 43 44 45 46 47 48 49 50 51 52 53 54 55 56 57 58 59 60 61 62 63 64 65 66 67 68 69 70 71 72 73 74 75 76 77 78 79 80 81 82 83 84 85 86 87 88 89 90 91 92 93 94 95 96 97 98 99 100
l 101 102 103 104 105 106 107 108 109 110 111 112 113 114 115 116 117 118 119 120 121 122 123 124 125 126 127 128 129 130 131 132 133 134 135 136 137 138 139 140 141 142 143 144 145 146 147 148 149 150 151 152 153 154 155 156 157 158 159 160 161 162 163 164 165 166 167 168 169 170 171 172 173 174 175 176 177 178 179 180 181 182 183 184 185 186 187 188 189 190 191 192 193 194 195 196 197 198 199 200
l 201 202 203 204 205 206 207 208 209 210 211 212 213 214 215 216 217 218 219 220 221 222 223 224 225 226 227 228 229 230 231 232 233 234 235 236 237 238 239 240 241 242 243 244 245 246 247 248 249 250 251 252 253 254 255 256 257 258 259 260 261 262 263 264 265 266 267 268 269 270 271 272 273 274 275 276 277 278 279 280 281 282 283 284 285 286 287 288 289 290 291 292 293 294 295 296 297 298 299 300
l 301 302 303 304 305 306 307 308 309 310 311 312 313 314 315 316 317 318 319 320 321 322 323 324 325 326 327 328 329 330 331 332 333 334 335 336 337 338 339 340 341 342 343 344 345 346 347 348 349 350 351 352 353 354 355 356 357 358 359 360 361 362 363 364 365 366 367 368 369 370 371 372 373 374 375 376 377 378 379 380 381 382 383 384 385 386 387 388 389 390 391 392 393 394 395 396 397 398 399 400
