v -0.20404690620325724 -0.12473134384561184 -0.16155421199196157
v -0.21594639617401445 -0.124365685478146 -0.14266755156613786
v -0.22784194009500758 -0.12400054335261243 -0.12377839556816483
v -0.23972979830015037 -0.12363640655199534 -0.1048843824690683
v -0.2516061412221835 -0.12327377561588179 -0.08598310064136747
v -0.2634669979522593 -0.12291316910634503 -0.06707205945939415
v -0.27530820095894076 -0.1225551306472538 -0.04814865861418089
v -0.28712532530738494 -0.1222002366407715 -0.0292101548886925
v -0.29891362045154174 -0.12184910489656928 -0.010253625542677326
v -0.3106679322979532 -0.12150240445349482 0.008724072675283964
v -0.3223826127300893 -0.12116086693344454 0.027726350044935216
v -0.33405141309577263 -0.12082529984757019 0.046756937302959975
v -0.3456673572387727 -0.12049660238232378 0.06581994765547197
v -0.35722258841658755 -0.12017578433630835 0.08491994941744198
v -0.3687081827725408 -0.11986398907143692 0.10406205179376987
v -0.38011391975369013 -0.11956252160177376 0.12325200691501086
v -0.3914279967439239 -0.1192728832969524 0.1424963319969079
v -0.4026276751820009 -0.1189979700820821 0.16180765901361582
v -0.41369613765242735 -0.1187398943975684 0.18119467900583264
v -0.42461618781255467 -0.11850079737116997 0.20066585951931346
v -0.43536253453563 -0.11828382831238489 0.2202336605429101
v -0.4458937510391326 -0.11809413743377914 0.2399183064259988
v -0.4561293827118482 -0.11794169918745837 0.25975845973634487
v -0.46604892856662883 -0.11782881528288662 0.2797586520009601
v -0.47546424835793055 -0.11777843106298364 0.30000087764738936
v -0.4842494253037881 -0.11780513377515425 0.3205229518672048
v -0.49203517905607536 -0.11795195271329176 0.3414412933161363
v -0.49807804886839263 -0.11830217602453874 0.3629161892912639
v -0.5 -0.11910383032722814 0.3850527857068521
v -0.48773418379453237 -0.1211148424845134 0.4018203849178145
v -0.46586158106962355 -0.12326469157172755 0.39987281574240346
v -0.4451940473195377 -0.12500970069762157 0.39168285531953995
v -0.42551630414640995 -0.12654671476514734 0.3812577008578181
v -0.40641909190579123 -0.1279590800488154 0.3697847590605351
v -0.38769081572123515 -0.12928542455548628 0.3577066082962261
v -0.36925568078858134 -0.1305363555977365 0.34517700949660773
v -0.35104937172619427 -0.13172182143525135 0.3323105127101789
v -0.3330136914713708 -0.13285291369006277 0.3192010526000074
v -0.3151218567656563 -0.13393330450280413 0.30589162304427825
v -0.2973526621753535 -0.13496582043988994 0.2924150491037737
v -0.279689136992263 -0.13595265188497213 0.2787968159964294
v -0.2621175621360349 -0.13689550216535296 0.26505700841543856
v -0.2446267427064252 -0.1377956951666484 0.25121166854936117
v -0.22720746370392297 -0.1386542538638256 0.23727376543024836
v -0.2098520783242108 -0.13947195812500218 0.2232538989269391
v -0.19255419322498749 -0.14024938748382873 0.20916081910945372
v -0.17531045606558712 -0.14098521219698193 0.1949992655077038
v -0.15812187052821128 -0.1416737612250837 0.18076846910345054
v -0.14097640229828393 -0.1423212420485998 0.1664838782966529
v -0.12387063476522145 -0.14292756563875 0.15214998636379315
v -0.10680164092628737 -0.14349251868825905 0.1377706283096226
v -0.08976689925292729 -0.14401576735414354 0.12334909951246276
v -0.07276912257658409 -0.14448951186054662 0.10888228701454074
v -0.055805593293948505 -0.14491188221434387 0.09437377249770347
v -0.03886962249099667 -0.14528880198222835 0.07983187886026256
v -0.021959791162083384 -0.1456192596183926 0.06525846815232066
v -0.005074854575546618 -0.14590207460911672 0.050655186223134786
v 0.011781041234186006 -0.14612341338923387 0.03601731427253743
v 0.028612097251750363 -0.14628569930438934 0.021350150987158024
v 0.045422092005971644 -0.14639326806773265 0.006658379883011713
v 0.062211723079010885 -0.14644383902013147 -0.008056971308911285
v 0.0789816071846237 -0.14643479346825233 -0.022794953485964237
v 0.09572709998229663 -0.1463434322969416 -0.037560373688101646
v 0.11245379185414935 -0.14618076150128997 -0.05234642143910715
v 0.12916290774691241 -0.14594563961148768 -0.06715132082450259
v 0.1458547248246421 -0.1456332733346624 -0.08197429709751373
v 0.16252946084091568 -0.14523809178739255 -0.09681455735138304
v 0.17918525239280714 -0.14474153874154957 -0.11167307519465508
v 0.19582273266932912 -0.14413561096488445 -0.12654799458577584
v 0.21244386842677754 -0.14342252023732788 -0.1414363542956654
v 0.2290484478051758 -0.1425918253529936 -0.15633703284673986
v 0.24563610974865585 -0.1416311059934559 -0.17124870142879725
v 0.26220629143353724 -0.14052547677092206 -0.18616974594116195
v 0.2787581504203397 -0.1392569520757133 -0.2010981582345806
v 0.29529044857772746 -0.1378036063054269 -0.21603138152536144
v 0.31180137714456807 -0.13613844966704838 -0.2309660865331759
v 0.32828828944858585 -0.13422790290127606 -0.24589784100144874
v 0.34474728582938113 -0.13202969773703807 -0.2608206118238613
v 0.3611725568265883 -0.1294899417207222 -0.27572599849700424
v 0.3775553214927964 -0.12653894645008124 -0.290602024752405
v 0.39388209897097454 -0.12308617898412509 -0.30543139004320946
v 0.41011456236818983 -0.1189059697070508 -0.32017565705055334
v 0.4262228480477296 -0.11392783299437949 -0.33480713279750657
v 0.44211022588624455 -0.10779813990037679 -0.34923795356586307
v 0.4576403288183935 -0.1001939789946692 -0.36334425444231483
v 0.4725053293724881 -0.09048079550591029 -0.3768464296217593
v 0.4859181511742388 -0.07752281797506061 -0.3890295620043565
v 0.4961044102197266 -0.0601102920364883 -0.398281943365183
v 0.5 -0.038613850711413246 -0.40182038491781474
v 0.49717040368609255 -0.01673081737200371 -0.3992502063982474
v 0.4902701335763165 0.003510586229726341 -0.39298255403801813
v 0.48115929574021876 0.02211918389986271 -0.3847069991164533
v 0.47081787216002113 0.03952540360246136 -0.37531367872762816
v 0.45969279407201935 0.056031010173593694 -0.3652085493882404
v 0.4480726209794395 0.07190356097960572 -0.35465371542503116
v 0.43610870973155386 0.08730418786650167 -0.3437866572697063
v 0.42390725342896163 0.1023614487730778 -0.3327038322242299
v 0.4115461172875451 0.11717935999642654 -0.3214759668103672
v 0.39908766623453035 0.13184787768016742 -0.31015970832990536
v 0.3865825824214205 0.14644383902013103 -0.29880109238745683
l 1 2 3 4 5 6 7 8 9 10 11 12 13 14 15 16 17 18 19 20 21 22 23 24 25 26 27 28 29 30 31 32 33 34 35 36 37 38 39 40 41 42 43 44 45 46 47 48 49 50 51 52 53 54 55 56 57 58 59 60 61 62 63 64 65 66 67 68 69 70 71 72 73 74 75 76 77 78 79 80 81 82 83 84 85 86 87 88 89 90 91 92 93 94 95 96 97 98 99 100
